<svg width="90" height="90" viewBox="0 0 90 90" fill="none" xmlns="http://www.w3.org/2000/svg">
<path d="M11.25 15C11.25 12.9375 12.9375 11.25 15 11.25H22.5V3.75H15C8.775 3.75 3.75 8.775 3.75 15V22.5H11.25V15ZM11.25 75V67.5H3.75V75C3.75 81.225 8.775 86.25 15 86.25H22.5V78.75H15C12.9375 78.75 11.25 77.0625 11.25 75ZM75 3.75H67.5V11.25H75C77.0625 11.25 78.75 12.9375 78.75 15V22.5H86.25V15C86.25 8.775 81.225 3.75 75 3.75ZM78.75 75C78.75 77.0625 77.0625 78.75 75 78.75H67.5V86.25H75C81.225 86.25 86.25 81.225 86.25 75V67.5H78.75V75ZM71.25 55.7625V34.2375C71.25 31.5375 69.825 29.0625 67.5 27.75L48.75 16.95C47.5875 16.275 46.3125 15.9375 45 15.9375C43.6875 15.9375 42.4125 16.275 41.25 16.95L22.5 27.7125C20.175 29.0625 18.75 31.5375 18.75 34.2375V55.7625C18.75 58.4625 20.175 60.9375 22.5 62.25L41.25 73.05C42.4125 73.725 43.6875 74.0625 45 74.0625C46.3125 74.0625 47.5875 73.725 48.75 73.05L67.5 62.25C69.825 60.9375 71.25 58.4625 71.25 55.7625ZM41.25 64.3875L26.25 55.7625V38.4L41.25 47.1375V64.3875ZM45 40.65L30.15 31.9875L45 23.4375L59.85 31.9875L45 40.65ZM63.75 55.7625L48.75 64.3875V47.1375L63.75 38.4V55.7625Z" fill="white"/>
</svg>
