<svg width="95" height="90" viewBox="0 0 95 90" fill="none" xmlns="http://www.w3.org/2000/svg">
<g clip-path="url(#clip0_124_68)">
<path d="M94.3125 70.4881L90.2931 45.2976L68.7415 58.9462L76.7384 62.5559C75.7821 64.2313 74.6938 65.8383 73.4838 67.3553C71.1235 70.3143 68.3014 72.9309 65.1407 75.0718C63.5604 76.1436 61.895 77.0961 60.1637 77.918C58.4312 78.7373 56.6327 79.426 54.7885 79.9752C51.0989 81.0723 47.2203 81.6114 43.3227 81.553C43.201 81.5518 43.0792 81.5581 42.9575 81.5518L42.5934 81.534L41.8642 81.4998L41.1336 81.4668C40.8901 81.4503 40.6491 81.4211 40.4068 81.3996L39.6788 81.3285L39.3148 81.2943C39.193 81.2841 39.0725 81.2702 38.952 81.2499L37.5049 81.0356C35.5833 80.7007 33.6758 80.2492 31.8113 79.6378C29.9532 79.0126 28.1357 78.2579 26.3727 77.3764C24.6186 76.4771 22.9329 75.4409 21.3183 74.2943L20.1236 73.4116L18.9706 72.4717L18.6815 72.2371C18.5863 72.1572 18.4963 72.0722 18.4037 71.9898L17.8507 71.4913L17.2952 70.9929C17.1138 70.8229 16.9413 70.6441 16.7637 70.4703L16.2336 69.9452C16.056 69.7702 15.8772 69.5977 15.7123 69.41L14.7014 68.3091C14.0622 67.5468 13.4039 66.7934 12.8192 65.9842L12.3664 65.3868C12.2129 65.1889 12.0823 64.9759 11.9377 64.7717L11.5154 64.1527C11.3784 63.9434 11.2249 63.7443 11.0993 63.5287L10.313 62.2489C10.176 62.0384 10.0656 61.8139 9.94262 61.5957L9.58114 60.9362C9.46318 60.7155 9.33381 60.4999 9.22347 60.2741L8.89497 59.5981C8.68062 59.1453 8.4409 58.7014 8.25446 58.2346L7.66087 56.8483L7.13705 55.4329C4.42915 47.8507 4.10192 39.3377 6.25936 31.4334C6.80982 29.4611 7.49345 27.5193 8.32421 25.6358C9.174 23.7612 10.157 21.9437 11.2668 20.1984C13.5155 16.7308 16.2729 13.5612 19.4818 10.8965L20.083 10.3955C20.1844 10.313 20.2821 10.2268 20.3848 10.1469L20.6969 9.91222L21.9487 8.96985L23.2449 8.08708L23.5696 7.86639L23.9045 7.66092L24.5742 7.25125C26.3663 6.17189 28.2308 5.19401 30.1815 4.40764C30.6609 4.19075 31.1568 4.01699 31.6502 3.83435C32.1449 3.65424 32.6345 3.45892 33.1405 3.31179C33.6428 3.15579 34.145 2.99344 34.6498 2.84124L36.1807 2.44298L36.5638 2.34278C36.6919 2.31361 36.8225 2.28824 36.9506 2.26161L37.7268 2.10053L38.5031 1.93945C38.7618 1.88491 39.0243 1.85447 39.2856 1.81135C39.8082 1.73398 40.3307 1.64266 40.8558 1.57417L42.4362 1.41055C46.5469 1.04527 50.7273 1.28499 54.8012 2.13097C54.9889 2.17029 55.1741 2.05487 55.2198 1.86842C55.2667 1.67944 55.1525 1.48665 54.9648 1.43592C50.8732 0.359101 46.609 -0.121599 42.3512 0.0267961L40.71 0.10797C40.1633 0.148557 39.6192 0.213242 39.0725 0.265244C38.7998 0.295684 38.5246 0.313441 38.2545 0.355296L37.4402 0.478324L36.6246 0.601353C36.4889 0.622915 36.352 0.640672 36.2175 0.66477L35.8142 0.747212L34.1945 1.07571C33.6605 1.20508 33.1278 1.34587 32.5939 1.48158C32.0561 1.60715 31.5335 1.78344 31.0059 1.94325C30.4795 2.10687 29.9481 2.26161 29.4344 2.46074C27.3442 3.17608 25.325 4.09816 23.368 5.1382L22.6361 5.53392L22.2709 5.73178L21.9145 5.9474L20.4901 6.80987L19.1064 7.73829L18.7601 7.97167C18.646 8.0503 18.5369 8.13655 18.424 8.21772L17.7543 8.71618C14.1827 11.3733 11.0321 14.6114 8.39397 18.2389C7.09012 20.064 5.9131 21.9843 4.87433 23.9832C3.85586 25.9922 2.98958 28.0824 2.26536 30.2247C-0.582056 38.8151 -0.773575 48.3251 1.84174 57.1439L2.35288 58.7902L2.94392 60.4111C3.13037 60.9565 3.37262 61.479 3.59204 62.0117L3.92815 62.8083C4.04104 63.0733 4.17421 63.3295 4.29597 63.5896L4.6714 64.3683C4.7995 64.6271 4.91492 64.8921 5.05698 65.142L5.88266 66.664C6.01457 66.9215 6.17565 67.1612 6.32151 67.4098L6.7705 68.1505C6.92397 68.3953 7.06349 68.649 7.22837 68.8874L7.71288 69.6066C8.34324 70.5781 9.05097 71.4938 9.74983 72.4185L10.8546 73.7604C11.0347 73.9874 11.2312 74.2005 11.4266 74.4148L12.0113 75.0591C12.2079 75.2735 12.3994 75.4916 12.5998 75.7009L13.2149 76.3186L13.8313 76.935C13.9353 77.0365 14.0355 77.1418 14.1408 77.242L14.463 77.5362L15.7541 78.7107L17.0998 79.8243C18.9224 81.2753 20.8478 82.607 22.8708 83.7853C24.9027 84.9471 27.0208 85.9643 29.2061 86.8319C31.3978 87.6842 33.6593 88.3564 35.9588 88.8828L37.6926 89.2366C37.8372 89.2683 37.9818 89.2937 38.1276 89.314L38.5652 89.3812L39.4404 89.5144C39.7321 89.5563 40.0238 89.607 40.3168 89.6425L41.1983 89.7325L42.0798 89.8213L42.5212 89.8645C42.6683 89.8784 42.8154 89.8822 42.9638 89.8911C47.6757 90.2158 52.4637 89.8239 57.1058 88.7128C59.4256 88.1573 61.7086 87.4242 63.9256 86.5186C66.1414 85.6105 68.29 84.5324 70.3485 83.2957C74.4655 80.8225 78.2173 77.715 81.4338 74.1054C83.3819 71.9213 85.1322 69.5508 86.6568 67.0344L94.3125 70.4881Z" fill="white"/>
<path d="M27.9544 40.8192C27.2555 41.4927 26.2776 41.8288 25.0182 41.8288C24.2204 41.8288 23.5253 41.707 22.933 41.4635C22.3407 41.22 21.8575 40.8496 21.4833 40.3512C21.1091 39.8527 20.8656 39.2173 20.754 38.4436H16.864C17.0505 39.9276 17.4969 41.1959 18.2008 42.2499C18.9048 43.3039 19.837 44.108 20.9963 44.6623C22.1555 45.2165 23.4962 45.4943 25.0169 45.4943C26.6632 45.4943 28.0685 45.2013 29.2341 44.6153C30.3997 44.0294 31.2875 43.1758 31.8989 42.0533C32.5102 40.9308 32.8159 39.5788 32.8159 37.9946V37.5456C32.8159 35.7877 32.4075 34.3418 31.5907 33.2066C30.7739 32.0727 29.6235 31.3434 28.1408 31.0188C29.4878 30.5571 30.5278 29.8214 31.2635 28.8118C31.9991 27.8023 32.3669 26.6176 32.3669 25.258V24.809C32.3669 22.5653 31.7251 20.8251 30.4403 19.591C29.1555 18.3569 27.3418 17.7393 24.9979 17.7393C23.6268 17.7393 22.4105 18.0132 21.3514 18.5624C20.2911 19.1116 19.4159 19.9157 18.7234 20.9748C18.0309 22.0351 17.5603 23.306 17.3117 24.7899H21.1827C21.345 24.0302 21.6038 23.396 21.9589 22.8912C22.3141 22.3864 22.7478 22.0123 23.259 21.7688C23.7701 21.5252 24.3497 21.4035 24.9979 21.4035C26.1318 21.4035 27.0082 21.6965 27.6259 22.2824C28.2435 22.8684 28.5517 23.6979 28.5517 24.7697V25.6118C28.5517 26.7711 28.2588 27.6691 27.6728 28.3045C27.0868 28.9399 26.2637 29.2583 25.2046 29.2583H23.278V32.887H25.2046C26.4133 32.887 27.3494 33.2586 28.0102 33.9993C28.671 34.7413 29.0007 35.7915 29.0007 37.1512V37.9743C29.002 39.1983 28.6532 40.1457 27.9544 40.8192Z" fill="white"/>
<path d="M51.9589 41.6788C52.5512 40.432 52.8467 38.9367 52.8467 37.1902V37.1711C52.8467 35.4627 52.5854 34.0016 52.0616 32.7852C51.5378 31.5702 50.7717 30.6443 49.7608 30.0076C48.7513 29.3721 47.5413 29.0538 46.1321 29.0538C45.3344 29.0538 44.6355 29.2161 44.0381 29.5396C43.8517 29.641 43.6804 29.7564 43.5219 29.882L49.5922 18.0205H45.4777L39.5685 29.7273C39.481 29.9023 39.3935 30.0799 39.3072 30.26C39.2197 30.4413 39.1385 30.6252 39.0637 30.8117C38.6147 31.8847 38.2722 32.9755 38.0351 34.084C37.7979 35.1938 37.6799 36.2529 37.6799 37.2637V37.2828C37.6799 39.0153 37.9755 40.4967 38.5678 41.7245C39.1601 42.9522 40.0238 43.8883 41.1577 44.53C42.2916 45.1718 43.6576 45.4927 45.2532 45.4927C46.8487 45.4927 48.2173 45.1693 49.3588 44.5199C50.5003 43.873 51.3666 42.9256 51.9589 41.6788ZM49.0316 37.5085C49.0316 38.8923 48.7043 39.959 48.0499 40.706C47.3954 41.4543 46.4632 41.8285 45.2544 41.8285C44.0571 41.8285 43.1312 41.4581 42.4768 40.7161C41.8223 39.9742 41.4951 38.9113 41.4951 37.5275V37.5085C41.4951 35.9878 41.8071 34.8095 42.4299 33.9737C43.0526 33.1391 43.9316 32.7205 45.0667 32.7205C46.3389 32.7205 47.3168 33.1353 48.0029 33.9648C48.6891 34.7943 49.0316 35.9688 49.0316 37.4895V37.5085Z" fill="white"/>
<path d="M65.657 45.4943C68.1873 45.4943 70.1139 44.8183 71.4355 43.465C72.7571 42.113 73.418 40.2143 73.418 37.7702V25.4089C73.418 22.9534 72.7597 21.0509 71.4444 19.7052C70.1292 18.3583 68.2 17.686 65.6557 17.686C63.1241 17.686 61.1988 18.3621 59.8772 19.7154C58.5556 21.0687 57.8948 22.9661 57.8948 25.4102V37.7714C57.8948 40.2028 58.5518 42.0977 59.8683 43.4561C61.1848 44.8145 63.114 45.4943 65.657 45.4943ZM61.7112 25.4089C61.7112 24.0873 62.0296 23.0739 62.665 22.37C63.3004 21.6661 64.2986 21.3135 65.657 21.3135C67.0154 21.3135 68.0136 21.6661 68.649 22.37C69.2844 23.0739 69.6028 24.0873 69.6028 25.4089V37.7702C69.6028 39.0918 69.2819 40.1052 68.6401 40.8091C67.9984 41.513 67.004 41.8656 65.657 41.8656C64.31 41.8656 63.3157 41.513 62.6739 40.8091C62.0321 40.1052 61.7112 39.0918 61.7112 37.7702V25.4089Z" fill="white"/>
<path d="M83.1992 28.8864C84.9318 28.8864 86.2788 28.4006 87.2389 27.4278C88.199 26.455 88.6785 25.0903 88.6785 23.3323C88.6785 21.5491 88.2041 20.1716 87.2566 19.1988C86.3092 18.226 84.9559 17.7402 83.198 17.7402C81.4527 17.7402 80.1032 18.226 79.1494 19.1988C78.1956 20.1716 77.7188 21.5427 77.7188 23.3133C77.7188 25.0712 78.1956 26.4398 79.1494 27.4189C80.1045 28.3981 81.454 28.8864 83.1992 28.8864ZM81.4794 21.3969C81.8776 20.9542 82.4458 20.7335 83.1815 20.7335C83.9171 20.7335 84.4904 20.9555 84.9026 21.3969C85.3136 21.8395 85.5203 22.4661 85.5203 23.2765C85.5203 24.125 85.3174 24.7757 84.9128 25.231C84.5069 25.6864 83.9311 25.9134 83.1828 25.9134C82.4471 25.9134 81.8802 25.6889 81.4806 25.2399C81.0811 24.7909 80.882 24.1491 80.882 23.3133C80.8807 22.4787 81.0798 21.8395 81.4794 21.3969Z" fill="white"/>
</g>
<defs>
<clipPath id="clip0_124_68">
<rect width="94.3123" height="90" fill="white"/>
</clipPath>
</defs>
</svg>
