<svg xmlns="http://www.w3.org/2000/svg" viewBox="0 0 1310 285"><defs><style>.cls-1{fill:#fff;}</style></defs><g id="X"><rect class="cls-1" x="227.35" y="92.2" width="103.23" height="21.09"/><rect class="cls-1" x="227.35" y="133.48" width="103.23" height="21.09"/><rect class="cls-1" x="227.35" y="174.76" width="103.23" height="21.09"/><rect class="cls-1" x="686.02" y="92.2" width="103.23" height="21.09"/><rect class="cls-1" x="686.02" y="133.48" width="103.23" height="21.09"/><rect class="cls-1" x="686.02" y="174.76" width="103.23" height="21.09"/><rect class="cls-1" x="1059.48" y="92.2" width="103.23" height="21.09"/><rect class="cls-1" x="1059.48" y="133.48" width="103.23" height="21.09"/><rect class="cls-1" x="1059.48" y="174.76" width="103.23" height="21.09"/><polygon class="cls-1" points="351.24 92.2 351.24 113.29 392.57 113.29 392.57 195.85 414.13 195.85 414.13 113.29 454.69 113.29 454.69 92.2 351.24 92.2"/><polyline class="cls-1" points="522.86 91.22 568.59 196.34 544.86 196.34 512.37 120.55 512.21 120.17 479.56 195.85 455.83 195.85 501.5 91.22"/><polyline class="cls-1" points="627.26 196.59 672.99 91.47 649.26 91.47 616.77 167.25 616.61 167.63 583.96 91.95 560.24 91.95 605.9 196.59"/><path class="cls-1" d="M810.5,92.2v21.09h73.3s9,.34,9,9.52a9.4,9.4,0,0,1-8.5,9.86l-73.81.81v21.09h29.93l48.3,41.28h33.85L875,154.57H886a28,28,0,0,0,14.52-3.88c6.48-3.92,13.35-11.75,13.35-27.37,0-29.59-20.24-31.12-29.25-31.12Z"/><path class="cls-1" d="M934.39,174.89v21h76.34a27,27,0,0,0,15.82-4.93c6-4.31,11.92-12.33,11.92-27.12,0-29.6-25.38-30.11-25.38-30.11H972.28s-16.71.26-16.71-9.69,11.09-10.84,15.81-10.84h67.09v-21H961.25a26,26,0,0,0-14.93,4.52c-6,4.17-11.93,12.19-11.93,27.54,0,32.56,32.91,30.1,32.91,30.1h35.59s14.16,0,14.16,9.69c0,5.66-4.6,8.4-8.44,9.71a22.57,22.57,0,0,1-7.25,1.13Z"/><path class="cls-1" d="M1188.19,126a.64.64,0,0,1-.28-.52,1.22,1.22,0,0,1,.31-.71l14.67-16.44L1189,92.68a1.24,1.24,0,0,1-.37-.77.58.58,0,0,1,.25-.49,1.21,1.21,0,0,1,.73-.18h5.66a2.64,2.64,0,0,1,1,.13,1.62,1.62,0,0,1,.6.49l10.36,11.56,10.35-11.56a1.57,1.57,0,0,1,.61-.49,2.55,2.55,0,0,1,1-.13h5.72a1.09,1.09,0,0,1,.67.18.58.58,0,0,1,.25.49,1.19,1.19,0,0,1-.37.77l-13.88,15.62,14.67,16.44a1.22,1.22,0,0,1,.31.71.62.62,0,0,1-.28.52,1.1,1.1,0,0,1-.7.2h-5.66a3,3,0,0,1-.91-.1,1.39,1.39,0,0,1-.61-.46l-11.14-12.43-11.09,12.43a1.42,1.42,0,0,1-.6.46,3.07,3.07,0,0,1-.92.1h-5.72A1.1,1.1,0,0,1,1188.19,126Z"/><path class="cls-1" d="M200.61,91.07H140.28l-7.65,10.58v0L125,91.09H64.64l-10.58,12v77.17l13.26,16.2h33.93l24.06-32.57s3-3.74,7.32-3.74v0c4.33,0,7.31,3.75,7.31,3.75L164,196.42h33.93l13.27-16.2V103.06ZM97.23,159.15c-10,0-18.17-9-18.17-20.12s8.13-20.13,18.17-20.13,18.18,9,18.18,20.13S107.27,159.15,97.23,159.15Zm70.79,0c-10,0-18.18-9-18.18-20.13S158,118.87,168,118.87s18.18,9,18.18,20.13S178.06,159.13,168,159.13Z"/><path class="cls-1" d="M1219.15,91.24h27.93s7.72.55,7.72,11.2-8,10.66-8,10.66h-4.53l13.71,13.07h-10.71L1231.39,113h-7.52l-3.64-4.32,4-3.71,20.73-.07a2.81,2.81,0,0,0,2.23-2.74,2.67,2.67,0,0,0-2.48-3h-25.51Z"/></g></svg>