<svg width="90" height="90" viewBox="0 0 90 90" fill="none" xmlns="http://www.w3.org/2000/svg">
<g clip-path="url(#clip0_121_55)">
<path d="M44.9998 7.02C55.4454 7.02 64.8336 10.6256 71.1561 17.1112C76.3585 17.7878 81.2662 19.9123 85.3198 23.2425C78.2267 8.33625 63.5342 0 44.9998 0C26.7186 0 11.9248 8.325 4.74731 23.1863C8.46394 20.1528 12.8975 18.1248 17.6229 17.2969C23.8273 10.53 33.6036 7.02 44.9998 7.02Z" fill="white"/>
<path d="M67.4999 67.5C61.6469 67.5068 56.0231 65.2258 51.8286 61.1437L51.8174 61.1325C51.3326 60.7683 50.8125 60.4536 50.2649 60.1931C48.6163 59.4279 46.8173 59.0416 44.9999 59.0625C42.6711 59.0625 40.8992 59.6419 39.7405 60.1931C39.1909 60.4532 38.6689 60.7679 38.1824 61.1325L38.1711 61.1437C35.5263 63.7113 32.2912 65.5898 28.7503 66.614C25.2093 67.6382 21.4709 67.7768 17.8639 67.0175C14.2568 66.2582 10.8915 64.6243 8.06395 62.2596C5.23637 59.8948 3.03308 56.8715 1.64782 53.4556C0.262562 50.0397 -0.26224 46.3358 0.119562 42.6695C0.501363 39.0032 1.77807 35.4869 3.83743 32.4297C5.89679 29.3725 8.67572 26.8681 11.9299 25.1366C15.184 23.4052 18.8137 22.4998 22.4999 22.5H67.4999C73.4672 22.5 79.1902 24.8705 83.4098 29.0901C87.6293 33.3097 89.9999 39.0326 89.9999 45C89.9999 50.9674 87.6293 56.6903 83.4098 60.9099C79.1902 65.1295 73.4672 67.5 67.4999 67.5Z" fill="white"/>
</g>
<defs>
<clipPath id="clip0_121_55">
<rect width="90" height="90" fill="white"/>
</clipPath>
</defs>
</svg>
