<svg width="20" height="21" viewBox="0 0 20 21" fill="none" xmlns="http://www.w3.org/2000/svg">
<path d="M8.44519 9.28L9.78769 8.05C10.1548 7.71302 10.4128 7.27404 10.5286 6.78939C10.6444 6.30474 10.6128 5.79653 10.4377 5.33L9.86519 3.80125C9.6513 3.23052 9.22787 2.76281 8.68115 2.4934C8.13444 2.22399 7.50558 2.17316 6.92269 2.35125C4.77769 3.0075 3.12894 5.00125 3.63644 7.36875C3.97019 8.92625 4.60894 10.8812 5.81894 12.9612C7.03144 15.0462 8.41644 16.5862 9.60394 17.6687C11.3964 19.3 13.9589 18.8925 15.6077 17.355C16.0496 16.9429 16.3178 16.3778 16.3575 15.7749C16.3973 15.1719 16.2055 14.5765 15.8214 14.11L14.7714 12.835C14.4548 12.4494 14.0299 12.1675 13.5517 12.0253C13.0734 11.8832 12.5635 11.8874 12.0877 12.0375L10.3527 12.5837C9.90463 12.1213 9.51198 11.6083 9.18269 11.055C8.86485 10.4954 8.61716 9.89887 8.44519 9.27875V9.28Z" fill="white"/>
</svg>
