<svg width="20" height="20" viewBox="0 0 20 20" fill="none" xmlns="http://www.w3.org/2000/svg">
<path d="M9.99984 1.66667C12.21 1.66667 14.3296 2.54464 15.8924 4.10744C17.4552 5.67025 18.3332 7.78986 18.3332 10C18.3332 12.2101 17.4552 14.3298 15.8924 15.8926C14.3296 17.4554 12.21 18.3333 9.99984 18.3333C7.7897 18.3333 5.67008 17.4554 4.10728 15.8926C2.54448 14.3298 1.6665 12.2101 1.6665 10C1.6665 7.78986 2.54448 5.67025 4.10728 4.10744C5.67008 2.54464 7.7897 1.66667 9.99984 1.66667V1.66667ZM9.1665 5.83333C8.94549 5.83333 8.73353 5.92113 8.57725 6.07741C8.42097 6.23369 8.33317 6.44565 8.33317 6.66667V10.8333C8.33317 11.0543 8.42097 11.2663 8.57725 11.4226C8.73353 11.5789 8.94549 11.6667 9.1665 11.6667H12.4998C12.7209 11.6667 12.9328 11.5789 13.0891 11.4226C13.2454 11.2663 13.3332 11.0543 13.3332 10.8333C13.3332 10.6123 13.2454 10.4004 13.0891 10.2441C12.9328 10.0878 12.7209 10 12.4998 10H9.99984V6.66667C9.99984 6.44565 9.91204 6.23369 9.75576 6.07741C9.59948 5.92113 9.38752 5.83333 9.1665 5.83333Z" fill="white"/>
</svg>
