<svg width="24" height="24" viewBox="0 0 24 24" fill="none" xmlns="http://www.w3.org/2000/svg">
<path d="M3.46839 2.3999H20.5444C21.1324 2.3999 21.6004 2.8679 21.6004 3.4559V20.5439C21.6004 21.1199 21.1324 21.5999 20.5444 21.5999H15.6484V14.1599H18.1444L18.5164 11.2679H15.6484V9.4199C15.6484 8.5799 15.8884 8.0039 17.0884 8.0039H18.6244V5.4119C18.3604 5.3759 17.4484 5.3039 16.3924 5.3039C14.1724 5.3039 12.6604 6.6479 12.6604 9.1319V11.2679H10.1524V14.1599H12.6604V21.5999H3.46839C3.18721 21.5999 2.91736 21.489 2.71741 21.2913C2.51746 21.0936 2.40355 20.8251 2.40039 20.5439V3.4559C2.40039 2.8679 2.88039 2.3999 3.46839 2.3999Z" fill="white"/>
</svg>
