<svg width="20" height="20" viewBox="0 0 20 20" fill="none" xmlns="http://www.w3.org/2000/svg">
<path d="M10 0.833332C11.9891 0.833332 13.8968 1.62351 15.3033 3.03003C16.7098 4.43655 17.5 6.34421 17.5 8.33333C17.5 11.4383 15.1333 14.6917 10.5 18.1667C10.3558 18.2748 10.1803 18.3333 10 18.3333C9.81969 18.3333 9.64425 18.2748 9.5 18.1667C4.86667 14.6917 2.5 11.4383 2.5 8.33333C2.5 6.34421 3.29018 4.43655 4.6967 3.03003C6.10322 1.62351 8.01088 0.833332 10 0.833332V0.833332ZM10 5.83333C9.33696 5.83333 8.70107 6.09672 8.23223 6.56557C7.76339 7.03441 7.5 7.67029 7.5 8.33333C7.5 8.99637 7.76339 9.63226 8.23223 10.1011C8.70107 10.5699 9.33696 10.8333 10 10.8333C10.663 10.8333 11.2989 10.5699 11.7678 10.1011C12.2366 9.63226 12.5 8.99637 12.5 8.33333C12.5 7.67029 12.2366 7.03441 11.7678 6.56557C11.2989 6.09672 10.663 5.83333 10 5.83333Z" fill="white"/>
</svg>
