<svg width="20" height="20" viewBox="0 0 20 20" fill="none" xmlns="http://www.w3.org/2000/svg">
<path d="M5 3.75C4.33696 3.75 3.70107 4.01339 3.23223 4.48223C2.76339 4.95107 2.5 5.58696 2.5 6.25V6.50125L10 10.54L17.5 6.5025V6.25C17.5 5.58696 17.2366 4.95107 16.7678 4.48223C16.2989 4.01339 15.663 3.75 15 3.75H5ZM17.5 7.92125L10.2963 11.8C10.2052 11.849 10.1034 11.8747 10 11.8747C9.89659 11.8747 9.7948 11.849 9.70375 11.8L2.5 7.92125V13.75C2.5 14.413 2.76339 15.0489 3.23223 15.5178C3.70107 15.9866 4.33696 16.25 5 16.25H15C15.663 16.25 16.2989 15.9866 16.7678 15.5178C17.2366 15.0489 17.5 14.413 17.5 13.75V7.92125Z" fill="white"/>
</svg>
